<svg xmlns="http://www.w3.org/2000/svg" xmlns:xlink="http://www.w3.org/1999/xlink" width="500" zoomAndPan="magnify" viewBox="0 0 375 374.999991" height="500" preserveAspectRatio="xMidYMid meet" version="1.0"><defs><clipPath id="a4787f21c3"><path d="M 39 37 L 326 37 L 326 317 L 39 317 Z M 39 37 " clip-rule="nonzero"/></clipPath><clipPath id="3fff8c29d6"><path d="M 182.390625 37.503906 L 393.730469 248.84375 L 182.390625 460.183594 L -28.953125 248.84375 Z M 182.390625 37.503906 " clip-rule="nonzero"/></clipPath><clipPath id="a91f4c5db8"><path d="M 182.390625 37.503906 L 393.730469 248.84375 L 182.390625 460.183594 L -28.953125 248.84375 Z M 182.390625 37.503906 " clip-rule="nonzero"/></clipPath><clipPath id="3d68672a89"><path d="M 72.3125 124 L 300.699219 124 L 300.699219 349.648438 L 72.3125 349.648438 Z M 72.3125 124 " clip-rule="nonzero"/></clipPath><clipPath id="271d73d051"><path d="M 72.3125 68 L 300.699219 68 L 300.699219 294 L 72.3125 294 Z M 72.3125 68 " clip-rule="nonzero"/></clipPath></defs><g clip-path="url(#a4787f21c3)"><g clip-path="url(#3fff8c29d6)"><g clip-path="url(#a91f4c5db8)"><path fill="#a6a6a6" d="M 182.390625 37.503906 L 325.304688 316.832031 C 234.90625 273.695312 129.871094 273.695312 39.472656 316.832031 Z M 182.390625 37.503906 " fill-opacity="1" fill-rule="nonzero"/></g></g></g><g clip-path="url(#3d68672a89)"><path fill="#000000" d="M 182.109375 124.050781 L 72.460938 348.128906 L 186.050781 284.335938 L 300.699219 349.191406 Z M 182.109375 124.050781 " fill-opacity="1" fill-rule="nonzero"/></g><g clip-path="url(#271d73d051)"><path fill="#000000" d="M 300.550781 290.859375 C 300.550781 291.464844 300.324219 292.070312 299.867188 292.527344 C 299.109375 293.210938 298.050781 293.359375 297.140625 292.90625 L 185.976562 230.097656 L 75.949219 291.769531 C 75.039062 292.300781 73.976562 292.148438 73.21875 291.464844 C 72.460938 290.78125 72.3125 289.71875 72.765625 288.808594 L 180.140625 69.433594 C 180.519531 68.671875 181.277344 68.140625 182.109375 68.140625 C 182.945312 68.140625 183.777344 68.597656 184.15625 69.355469 L 300.324219 289.796875 C 300.472656 290.097656 300.550781 290.476562 300.550781 290.859375 Z M 80.039062 284.257812 L 184.839844 225.46875 C 185.519531 225.089844 186.355469 225.089844 187.035156 225.46875 L 292.667969 285.09375 L 182.261719 75.425781 Z M 80.039062 284.257812 " fill-opacity="1" fill-rule="nonzero"/></g></svg>